{
  "accessors": [
    {
      "bufferView": 2,
      "componentType": 5126,
      "count": 3012,
      "max": [
        2.5035347938537598,
        1.9200148582458496,
        6.134671688079834
      ],
      "min": [
        -2.5025808811187744,
        -2.0947253704071045,
        0.014815125614404678
      ],
      "type": "VEC3"
    },
    {
      "bufferView": 2,
      "byteOffset": 36144,
      "componentType": 5126,
      "count": 3012,
      "max": [
        0.9997018575668335,
        0.9999995231628418,
        0.99977171421051025
      ],
      "min": [
        -0.9996335506439209,
        -0.99991703033447266,
        -0.99999934434890747
      ],
      "type": "VEC3"
    },
    {
      "bufferView": 3,
      "componentType": 5126,
      "count": 3012,
      "max": [
        0.9999469518661499,
        0.99987649917602539,
        0.99993109703063965,
        1
      ],
      "min": [
        -1,
        -0.99954146146774292,
        -0.99113577604293823,
        1
      ],
      "type": "VEC4"
    },
    {
      "bufferView": 1,
      "componentType": 5126,
      "count": 3012,
      "max": [
        0.99961334466934204,
        0.97536551952362061
      ],
      "min": [
        0.00038658585981465876,
        0.00038658585981465876
      ],
      "type": "VEC2"
    },
    {
      "bufferView": 1,
      "byteOffset": 24096,
      "componentType": 5126,
      "count": 3012,
      "max": [
        0.99961334466934204,
        0.97536551952362061
      ],
      "min": [
        0.00038658585981465876,
        0.00038658585981465876
      ],
      "type": "VEC2"
    },
    {
      "bufferView": 1,
      "byteOffset": 48192,
      "componentType": 5126,
      "count": 3012,
      "max": [
        0.99961334466934204,
        0.97536551952362061
      ],
      "min": [
        0.00038658585981465876,
        0.00038658585981465876
      ],
      "type": "VEC2"
    },
    {
      "bufferView": 0,
      "componentType": 5125,
      "count": 14568,
      "max": [
        3011
      ],
      "min": [
        0
      ],
      "type": "SCALAR"
    },
    {
      "bufferView": 2,
      "byteOffset": 72288,
      "componentType": 5126,
      "count": 13448,
      "max": [
        0.4988429844379425,
        0.79208469390869141,
        1.189692497253418
      ],
      "min": [
        -0.81790697574615479,
        -0.79172700643539429,
        -0.92313838005065918
      ],
      "type": "VEC3"
    },
    {
      "bufferView": 2,
      "byteOffset": 233664,
      "componentType": 5126,
      "count": 13448,
      "max": [
        0.99986684322357178,
        0.99986791610717773,
        0.99999344348907471
      ],
      "min": [
        -0.9999387264251709,
        -0.99998760223388672,
        -0.99999582767486572
      ],
      "type": "VEC3"
    },
    {
      "bufferView": 3,
      "byteOffset": 48192,
      "componentType": 5126,
      "count": 13448,
      "max": [
        0.99989795684814453,
        0.99987101554870605,
        0.99983841180801392,
        1
      ],
      "min": [
        -0.99820393323898315,
        -0.99968105554580688,
        -0.99961519241333008,
        -1
      ],
      "type": "VEC4"
    },
    {
      "bufferView": 1,
      "byteOffset": 72288,
      "componentType": 5126,
      "count": 13448,
      "max": [
        0.99990016222000122,
        0.99990016222000122
      ],
      "min": [
        9.9980010418221354e-05,
        9.998000314226374e-05
      ],
      "type": "VEC2"
    },
    {
      "bufferView": 0,
      "byteOffset": 58272,
      "componentType": 5125,
      "count": 80676,
      "max": [
        13447
      ],
      "min": [
        0
      ],
      "type": "SCALAR"
    }
  ],
  "asset": {
    "extras": {
      "author": "Irina.Tuchna (https://sketchfab.com/Irina.Tuchna)",
      "license": "CC-BY-4.0 (http://creativecommons.org/licenses/by/4.0/)",
      "source": "https://sketchfab.com/3d-models/armchair-aa996d92464a4d2bb5d84377944f6227",
      "title": "Armchair"
    },
    "generator": "Sketchfab-5.48.1",
    "version": "2.0"
  },
  "bufferViews": [
    {
      "buffer": 0,
      "byteLength": 380976,
      "byteOffset": 0,
      "name": "floatBufferViews",
      "target": 34963
    },
    {
      "buffer": 0,
      "byteLength": 179872,
      "byteOffset": 380976,
      "byteStride": 8,
      "name": "floatBufferViews",
      "target": 34962
    },
    {
      "buffer": 0,
      "byteLength": 395040,
      "byteOffset": 560848,
      "byteStride": 12,
      "name": "floatBufferViews",
      "target": 34962
    },
    {
      "buffer": 0,
      "byteLength": 263360,
      "byteOffset": 955888,
      "byteStride": 16,
      "name": "floatBufferViews",
      "target": 34962
    }
  ],
  "buffers": [
    {
      "byteLength": 1219248,
      "uri": "scene.bin"
    }
  ],
  "images": [
    {
      "uri": "textures/Material.003_baseColor.png"
    },
    {
      "uri": "textures/Material.003_metallicRoughness.png"
    },
    {
      "uri": "textures/Material.003_normal.png"
    },
    {
      "uri": "textures/Material.001_baseColor.png"
    }
  ],
  "materials": [
    {
      "doubleSided": true,
      "emissiveFactor": [
        0,
        0,
        0
      ],
      "name": "Material.003",
      "normalTexture": {
        "index": 2,
        "scale": 1,
        "texCoord": 0
      },
      "pbrMetallicRoughness": {
        "baseColorFactor": [
          1,
          1,
          1,
          1
        ],
        "baseColorTexture": {
          "index": 0,
          "texCoord": 0
        },
        "metallicFactor": 1,
        "metallicRoughnessTexture": {
          "index": 1,
          "texCoord": 0
        },
        "roughnessFactor": 1
      }
    },
    {
      "doubleSided": true,
      "emissiveFactor": [
        0,
        0,
        0
      ],
      "name": "Material.001",
      "pbrMetallicRoughness": {
        "baseColorFactor": [
          1,
          1,
          1,
          1
        ],
        "baseColorTexture": {
          "index": 3,
          "texCoord": 0
        },
        "metallicFactor": 0,
        "roughnessFactor": 0.82111456179999998
      }
    }
  ],
  "meshes": [
    {
      "name": "chair_Material.003_0",
      "primitives": [
        {
          "attributes": {
            "NORMAL": 1,
            "POSITION": 0,
            "TANGENT": 2,
            "TEXCOORD_0": 3,
            "TEXCOORD_1": 4,
            "TEXCOORD_2": 5
          },
          "indices": 6,
          "material": 0,
          "mode": 4
        }
      ]
    },
    {
      "name": "wood_Material.001_0",
      "primitives": [
        {
          "attributes": {
            "NORMAL": 8,
            "POSITION": 7,
            "TANGENT": 9,
            "TEXCOORD_0": 10
          },
          "indices": 11,
          "material": 1,
          "mode": 4
        }
      ]
    }
  ],
  "nodes": [
    {
      "children": [
        1
      ],
      "name": "RootNode (gltf orientation matrix)",
      "rotation": [
        -0.70710678118654746,
        -0,
        -0,
        0.70710678118654757
      ]
    },
    {
      "children": [
        2
      ],
      "name": "RootNode (model correction matrix)"
    },
    {
      "children": [
        3
      ],
      "matrix": [
        1,
        0,
        0,
        0,
        0,
        0,
        1,
        0,
        0,
        -1,
        0,
        0,
        0,
        0,
        0,
        1
      ],
      "name": "071f54e32fb141c09829333345e97d6a.fbx"
    },
    {
      "children": [
        4,
        6
      ],
      "name": "RootNode"
    },
    {
      "children": [
        5
      ],
      "matrix": [
        100,
        0,
        0,
        0,
        0,
        -1.6292067939183141e-05,
        -99.999999999998678,
        0,
        0,
        99.999999999998678,
        -1.6292067939183141e-05,
        0,
        0,
        0,
        0,
        1
      ],
      "name": "chair"
    },
    {
      "mesh": 0,
      "name": "chair_Material.003_0"
    },
    {
      "children": [
        7
      ],
      "matrix": [
        260.36316515476318,
        8.0235941317657183e-15,
        -125.61260099232305,
        0,
        -125.61260099232294,
        -1.2636108061980919e-05,
        -260.36316515476295,
        0,
        -5.4907013948956378e-06,
        289.08044433593722,
        -1.1380835888314582e-05,
        0,
        208.79808044433594,
        265.820556640625,
        37.351585388183594,
        1
      ],
      "name": "wood"
    },
    {
      "mesh": 1,
      "name": "wood_Material.001_0"
    }
  ],
  "samplers": [
    {
      "magFilter": 9729,
      "minFilter": 9987,
      "wrapS": 10497,
      "wrapT": 10497
    }
  ],
  "scene": 0,
  "scenes": [
    {
      "name": "OSG_Scene",
      "nodes": [
        0
      ]
    }
  ],
  "textures": [
    {
      "sampler": 0,
      "source": 0
    },
    {
      "sampler": 0,
      "source": 1
    },
    {
      "sampler": 0,
      "source": 2
    },
    {
      "sampler": 0,
      "source": 3
    }
  ]
}

